<?xml version="1.0" encoding="utf-8"?>
<!-- Generator: Adobe Illustrator 25.2.3, SVG Export Plug-In . SVG Version: 6.00 Build 0)  -->
<svg version="1.1" id="Layer_1" xmlns="http://www.w3.org/2000/svg" xmlns:xlink="http://www.w3.org/1999/xlink" x="0px" y="0px"
	 viewBox="0 0 32 32" style="enable-background:new 0 0 32 32;" xml:space="preserve">
<style type="text/css">
	.st0{fill:#E6E7E8;}
	.st1{fill:url(#SVGID_1_);}
	.st2{fill:url(#SVGID_2_);}
	.st3{fill:url(#SVGID_3_);}
</style>
<g>
	<path class="st0" d="M30,32H2c-1.1,0-2-0.9-2-2V2c0-1.1,0.9-2,2-2h28c1.1,0,2,0.9,2,2v28C32,31.1,31.1,32,30,32z"/>
</g>
<g>
	<linearGradient id="SVGID_1_" gradientUnits="userSpaceOnUse" x1="3.6706" y1="15.1652" x2="29.2155" y2="15.1652">
		<stop  offset="0" style="stop-color:#223F99"/>
		<stop  offset="0.8445" style="stop-color:#37B34A"/>
	</linearGradient>
	<path class="st1" d="M3.67,13.56v-0.95c0.02-0.12,0.05-0.24,0.07-0.37C4.08,9.96,5.92,8.17,8.2,7.88c1.54-0.19,2.95,0.19,4.14,1.26
		c0.12,0.11,0.24,0.22,0.36,0.34c0.04-0.06,0.07-0.11,0.09-0.15c0.03-0.04,0.05-0.09,0.08-0.13c0.52-0.81,1.24-1.26,2.21-1.26
		c1.5,0,3,0,4.51,0.01c0.04,0,0.07,0.01,0.12,0.01c-0.01,0.68-0.26,1.25-0.73,1.71c-0.76,0.76-1.7,1.15-2.74,1.26
		c-0.77,0.07-1.55,0.05-2.33,0.06c-0.08,0-0.16,0.01-0.26,0.01c0.14,0.43,0.26,0.83,0.4,1.23c0.02,0.05,0.12,0.09,0.19,0.09
		c0.76,0,1.52-0.07,2.28-0.01c2.74,0.2,4.58,2.21,4.58,4.96c0,1.81,1.46,3.12,3.26,2.92c1.45-0.16,2.55-1.44,2.53-2.96
		c-0.01-1.41-1.19-2.71-2.59-2.8c-0.92-0.06-1.84-0.02-2.76-0.03c-0.09,0-0.18,0-0.27,0v-2.25c1.09,0,2.16-0.06,3.22,0.01
		c2.19,0.15,4.03,1.79,4.52,3.92c0.02,0.08,0.04,0.17,0.06,0.25c0.08,0.29,0.12,0.59,0.12,0.89v0.09c0,0.25-0.03,0.51-0.08,0.75
		c0,0.01,0,0.02-0.01,0.03c-0.51,3.25-3.54,4.67-5.78,4.34c-1.09-0.16-2.05-0.59-2.86-1.34c-0.18-0.17-0.35-0.34-0.53-0.51
		c-0.02,0.01-0.03,0.02-0.04,0.03c-0.03,0.03-0.06,0.07-0.09,0.1c-1.37,1.45-3.04,2.04-5.02,1.66c-1.52-0.29-2.72-1.07-3.52-2.42
		c-0.12-0.21-0.2-0.44-0.32-0.7c0.95,0,1.85,0,2.75,0.01c0.08,0,0.17,0.08,0.25,0.14c0.2,0.16,0.37,0.37,0.59,0.48
		c0.9,0.47,1.82,0.5,2.73,0c1.05-0.58,1.62-1.46,1.58-2.66c-0.03-0.9-0.43-1.75-1.16-2.29c-1.47-1.09-3.39-0.64-4.29,0.83
		c-0.49,0.79-1.08,1.47-1.94,1.88c-0.75,0.35-1.54,0.5-2.36,0.55c-2.42,0.14-4.64-1.45-5.27-3.8C3.78,14.12,3.73,13.83,3.67,13.56z
		 M5.93,13c0,1.65,1.31,2.99,2.93,3c1.55,0.01,2.96-1.37,2.96-2.9c0.01-1.68-1.32-3.05-2.95-3.06C7.29,10.04,5.93,11.4,5.93,13z"/>
	<linearGradient id="SVGID_2_" gradientUnits="userSpaceOnUse" x1="3.8111" y1="9.4688" x2="29.2316" y2="9.4688">
		<stop  offset="0.1644" style="stop-color:#223F99"/>
		<stop  offset="0.8431" style="stop-color:#37B34A"/>
	</linearGradient>
	<path class="st2" d="M20.75,7.94c0.19,0,0.36,0,0.52,0c1.37,0,2.74-0.02,4.12,0c1.32,0.02,2.43,1.06,2.61,2.38
		c0.02,0.17,0.04,0.35,0.03,0.52c0,0.05-0.08,0.13-0.13,0.13c-1.33-0.01-2.67,0.12-3.99-0.1c-1.01-0.16-1.89-0.6-2.58-1.38
		C20.94,9.07,20.76,8.55,20.75,7.94z"/>
	<linearGradient id="SVGID_3_" gradientUnits="userSpaceOnUse" x1="3.7878" y1="20.8421" x2="29.135" y2="20.8421">
		<stop  offset="0" style="stop-color:#223F99"/>
		<stop  offset="0.8504" style="stop-color:#37B34A"/>
	</linearGradient>
	<path class="st3" d="M3.79,22.41c-0.01-0.69,0.3-1.21,0.73-1.66c0.69-0.72,1.57-1.09,2.52-1.3c0.51-0.11,1.04-0.16,1.57-0.18
		c0.61-0.03,1.22-0.01,1.85-0.01c-0.02,0.94-0.15,1.82-0.69,2.59c-0.29,0.41-0.71,0.57-1.19,0.57c-1.49,0-2.99-0.01-4.48-0.01
		C3.99,22.41,3.91,22.41,3.79,22.41z"/>
</g>
</svg>
